<?xml version="1.0" encoding="UTF-8"?>
<svg xmlns="http://www.w3.org/2000/svg" xmlns:xlink="http://www.w3.org/1999/xlink" width="2836" height="2836" viewBox="0 0 2836 2836">
<defs>
    <linearGradient id="auroraGradient" x1="0%" y1="0%" x2="100%" y2="100%">
      <stop offset="0%" stop-color="#39FF14" /> <!-- Verde brilhante -->
      <stop offset="20%" stop-color="#00FFFF" /> <!-- Ciano -->
      <stop offset="40%" stop-color="#0080FF" /> <!-- Azul -->
      <stop offset="60%" stop-color="#8A2BE2" /> <!-- Roxo -->
      <stop offset="80%" stop-color="#FF1493" /> <!-- Rosa quente -->
      <stop offset="100%" stop-color="#00FF7F" /> <!-- Verde primavera -->
    </linearGradient>
  </defs>
<!-- Fundo removido para ficar transparente -->
<path fill-rule="evenodd" fill="url(#auroraGradient)" fill-opacity="1" d="M 1758.980469 1894.601562 C 1667.339844 2043.65625 1507.238281 2092.644531 1365.648438 2075.539062 C 1167.78125 2051.636719 1045.269531 1935.601562 1036.46875 1785.910156 C 1021.300781 1527.910156 1276.710938 1495.871094 1478.910156 1494.371094 C 1795.050781 1492.019531 1981.050781 1494.570312 1981.050781 1494.570312 C 2166.441406 1494.878906 2293.308594 1414.789062 2329.511719 1288.5 C 2419.410156 974.828125 2131.890625 631.898438 1822.449219 522.339844 C 1732.109375 490.351562 1634.648438 475.511719 1587.191406 502.140625 C 1562.289062 516.109375 1555.589844 552.109375 1556.128906 607.730469 C 1556.46875 642.011719 1556.640625 659.160156 1556.640625 659.160156 C 1309.648438 662.171875 1094.929688 636.25 872.425781 771.269531 C 432.613281 1038.171875 367.257812 1706.480469 701.875 2087.242188 C 853.066406 2253.3125 1072.011719 2352.929688 1291.988281 2346.742188 C 1552.53125 2339.410156 1804.691406 2210.320312 1843.460938 1910.804688 C 1859.371094 1787.859375 1843.78125 1740.921875 1831.929688 1742.28125 C 1821.761719 1743.460938 1792.078125 1840.761719 1758.980469 1894.601562 Z M 2012.441406 898.828125 C 2055.210938 898.828125 2089.871094 933.488281 2089.871094 976.261719 C 2089.871094 1019.019531 2055.210938 1053.691406 2012.441406 1053.691406 C 1969.679688 1053.691406 1935.011719 1019.019531 1935.011719 976.261719 C 1935.011719 933.488281 1969.679688 898.828125 2012.441406 898.828125 "/>
</svg>